<svg>

    <symbol id="facebook" width="62" height="62" viewBox="0 0 62 62" fill="none"
        xmlns="http://www.w3.org/2000/svg">
        <circle cx="31" cy="31" r="30" stroke="white" stroke-opacity="0.2"/>
        <path d="M28.8516 41.9839V33.0386H25.8438V29.4839H28.8516V26.6714C28.8516 25.187 29.2682 24.0412 30.1016 23.2339C30.9349 22.4006 32.0417 21.9839 33.4219 21.9839C34.5417 21.9839 35.4531 22.036 36.1562 22.1401V25.3042H34.2812C33.5781 25.3042 33.0964 25.4604 32.8359 25.7729C32.6276 26.0334 32.5234 26.45 32.5234 27.0229V29.4839H35.8438L35.375 33.0386H32.5234V41.9839H28.8516Z" fill="white"/>
    </symbol>

    <symbol id="twitter" width="62" height="62" viewBox="0 0 62 62" fill="none"
        xmlns="http://www.w3.org/2000/svg">
        <circle cx="31" cy="31" r="30" stroke="white" stroke-opacity="0.2"/>
        <path d="M38.9297 27.9214C38.9557 28.0256 38.9688 28.1948 38.9688 28.4292C38.9688 30.3042 38.513 32.1141 37.6016 33.8589C36.6641 35.7078 35.349 37.1792 33.6562 38.2729C31.8073 39.4969 29.6849 40.1089 27.2891 40.1089C24.9974 40.1089 22.901 39.4969 21 38.2729C21.2865 38.299 21.612 38.312 21.9766 38.312C23.8776 38.312 25.5833 37.7261 27.0938 36.5542C26.1823 36.5542 25.375 36.2938 24.6719 35.7729C23.9948 35.2261 23.526 34.549 23.2656 33.7417C23.526 33.7677 23.7734 33.7808 24.0078 33.7808C24.3724 33.7808 24.737 33.7417 25.1016 33.6636C24.1641 33.4552 23.3828 32.9735 22.7578 32.2183C22.1328 31.4631 21.8203 30.6037 21.8203 29.6401V29.562C22.3932 29.9006 23.0052 30.0828 23.6562 30.1089C23.1094 29.7183 22.6667 29.2235 22.3281 28.6245C21.9896 28.0256 21.8203 27.3745 21.8203 26.6714C21.8203 25.9422 22.0156 25.2521 22.4062 24.6011C23.4219 25.8771 24.6589 26.8927 26.1172 27.6479C27.6016 28.4032 29.1771 28.8198 30.8438 28.8979C30.7917 28.5854 30.7656 28.2729 30.7656 27.9604C30.7656 27.2313 30.9479 26.5542 31.3125 25.9292C31.6771 25.2782 32.1719 24.7703 32.7969 24.4058C33.4219 24.0412 34.099 23.8589 34.8281 23.8589C35.4271 23.8589 35.974 23.9761 36.4688 24.2104C36.9896 24.4448 37.4453 24.7573 37.8359 25.1479C38.7734 24.9657 39.6458 24.6401 40.4531 24.1714C40.1406 25.1349 39.5417 25.8901 38.6562 26.437C39.4375 26.3328 40.2188 26.1115 41 25.7729C40.4271 26.6063 39.737 27.3224 38.9297 27.9214Z" fill="white"/>
    </symbol>

    <symbol id="instagram" width="62" height="62" viewBox="0 0 62 62" fill="none"
        xmlns="http://www.w3.org/2000/svg">
        <circle cx="31" cy="31" r="30" stroke="white" stroke-opacity="0.2"/>
        <path d="M31 27.4917C30.1927 27.4917 29.4375 27.7 28.7344 28.1167C28.0573 28.5073 27.5104 29.0542 27.0938 29.7573C26.7031 30.4344 26.5078 31.1766 26.5078 31.9839C26.5078 32.7912 26.7031 33.5464 27.0938 34.2495C27.5104 34.9266 28.0573 35.4735 28.7344 35.8901C29.4375 36.2808 30.1927 36.4761 31 36.4761C31.8073 36.4761 32.5495 36.2808 33.2266 35.8901C33.9297 35.4735 34.4766 34.9266 34.8672 34.2495C35.2839 33.5464 35.4922 32.7912 35.4922 31.9839C35.4922 31.1766 35.2839 30.4344 34.8672 29.7573C34.4766 29.0542 33.9297 28.5073 33.2266 28.1167C32.5495 27.7 31.8073 27.4917 31 27.4917ZM31 34.9136C30.1927 34.9136 29.5026 34.6271 28.9297 34.0542C28.3568 33.4813 28.0703 32.7912 28.0703 31.9839C28.0703 31.1766 28.3568 30.4865 28.9297 29.9136C29.5026 29.3407 30.1927 29.0542 31 29.0542C31.8073 29.0542 32.4974 29.3407 33.0703 29.9136C33.6432 30.4865 33.9297 31.1766 33.9297 31.9839C33.9297 32.7912 33.6432 33.4813 33.0703 34.0542C32.4974 34.6271 31.8073 34.9136 31 34.9136ZM36.7422 27.2964C36.7161 27.5828 36.599 27.8302 36.3906 28.0386C36.2083 28.2469 35.974 28.3511 35.6875 28.3511C35.401 28.3511 35.1536 28.2469 34.9453 28.0386C34.737 27.8302 34.6328 27.5828 34.6328 27.2964C34.6328 27.0099 34.737 26.7625 34.9453 26.5542C35.1536 26.3459 35.401 26.2417 35.6875 26.2417C35.974 26.2417 36.2214 26.3459 36.4297 26.5542C36.638 26.7625 36.7422 27.0099 36.7422 27.2964ZM39.7109 28.3511C39.6589 27.5959 39.5417 26.9448 39.3594 26.3979C39.125 25.7469 38.7604 25.187 38.2656 24.7183C37.7969 24.2235 37.237 23.8589 36.5859 23.6245C36.0391 23.4422 35.388 23.3381 34.6328 23.312C33.9036 23.2599 32.6927 23.2339 31 23.2339C29.3073 23.2339 28.0833 23.2599 27.3281 23.312C26.599 23.3381 25.9609 23.4422 25.4141 23.6245C24.763 23.8589 24.1901 24.2235 23.6953 24.7183C23.2266 25.187 22.875 25.7469 22.6406 26.3979C22.4583 26.9448 22.3411 27.5959 22.2891 28.3511C22.263 29.0802 22.25 30.2912 22.25 31.9839C22.25 33.6766 22.263 34.9006 22.2891 35.6558C22.3411 36.3849 22.4583 37.0229 22.6406 37.5698C22.875 38.2209 23.2266 38.7938 23.6953 39.2886C24.1901 39.7573 24.763 40.0959 25.4141 40.3042C25.9609 40.5125 26.599 40.6297 27.3281 40.6558C28.0833 40.7078 29.3073 40.7339 31 40.7339C32.6927 40.7339 33.9036 40.7078 34.6328 40.6558C35.388 40.6297 36.0391 40.5256 36.5859 40.3433C37.237 40.1089 37.7969 39.7573 38.2656 39.2886C38.7604 38.7938 39.125 38.2209 39.3594 37.5698C39.5417 37.0229 39.6458 36.3849 39.6719 35.6558C39.724 34.9006 39.75 33.6766 39.75 31.9839C39.75 30.2912 39.737 29.0802 39.7109 28.3511ZM37.8359 37.1401C37.5234 37.9214 36.9635 38.4813 36.1562 38.8198C35.7396 38.9761 35.0365 39.0802 34.0469 39.1323C33.5 39.1584 32.6927 39.1714 31.625 39.1714H30.375C29.3333 39.1714 28.526 39.1584 27.9531 39.1323C26.9896 39.0802 26.2865 38.9761 25.8438 38.8198C25.0625 38.5073 24.5026 37.9474 24.1641 37.1401C24.0078 36.6974 23.9036 35.9943 23.8516 35.0308C23.8255 34.4578 23.8125 33.6506 23.8125 32.6089V31.3589C23.8125 30.3172 23.8255 29.5099 23.8516 28.937C23.9036 27.9474 24.0078 27.2443 24.1641 26.8276C24.4766 26.0203 25.0365 25.4604 25.8438 25.1479C26.2865 24.9917 26.9896 24.8875 27.9531 24.8354C28.526 24.8094 29.3333 24.7964 30.375 24.7964H31.625C32.6667 24.7964 33.474 24.8094 34.0469 24.8354C35.0365 24.8875 35.7396 24.9917 36.1562 25.1479C36.9635 25.4604 37.5234 26.0203 37.8359 26.8276C37.9922 27.2443 38.0964 27.9474 38.1484 28.937C38.1745 29.4839 38.1875 30.2912 38.1875 31.3589V32.6089C38.1875 33.6506 38.1745 34.4578 38.1484 35.0308C38.0964 35.9943 37.9922 36.6974 37.8359 37.1401Z" fill="white"/>
    </symbol>

    <symbol id="arrow-down" width="62" height="62" viewBox="0 0 62 62" fill="none"
        xmlns="http://www.w3.org/2000/svg">
        <circle cx="31" cy="31" r="30" stroke="white" stroke-opacity="0.2"/>
        <ellipse cx="31" cy="31" rx="20" ry="20" fill="white"/>
        <path d="M30.3359 33.2891C30.6875 33.6406 31.2734 33.6406 31.625 33.2891L36.9375 27.9766C37.3281 27.5859 37.3281 27 36.9375 26.6484L36.0781 25.75C35.6875 25.3984 35.1016 25.3984 34.75 25.75L30.9609 29.5391L27.2109 25.75C26.8594 25.3984 26.2734 25.3984 25.8828 25.75L25.0234 26.6484C24.6328 27 24.6328 27.5859 25.0234 27.9766L30.3359 33.2891Z" fill="#333333"/>
    </symbol>

    <symbol id="map" width="15" height="16" viewBox="0 0 15 16" fill="none"
        xmlns="http://www.w3.org/2000/svg">
        <path d="M7.2954 1.3335C4.61373 1.3335 2.4318 3.72616 2.4318 6.6635C2.41417 10.9602 7.11058 14.5228 7.2954 14.6668C7.2954 14.6668 12.1766 10.9602 12.159 6.66683C12.159 3.72616 9.97707 1.3335 7.2954 1.3335ZM7.2954 9.3335C5.95183 9.3335 4.8636 8.14016 4.8636 6.66683C4.8636 5.1935 5.95183 4.00016 7.2954 4.00016C8.63897 4.00016 9.7272 5.1935 9.7272 6.66683C9.7272 8.14016 8.63897 9.3335 7.2954 9.3335Z" fill="#E8C300"/>
    </symbol>

    <symbol id="phone" width="10" height="11" viewBox="0 0 10 11" fill="none"
        xmlns="http://www.w3.org/2000/svg">
        <g clip-path="url(#clip0_18130_2)">
            <path d="M8.99236 9.14688L7.70664 10.6853C7.51685 10.9201 7.26529 10.9996 7.0203 11C5.93685 10.9608 4.91274 10.3189 4.07188 9.65969C2.69167 8.4485 1.42526 6.94668 0.630445 5.13179C0.325604 4.37075 -0.0320839 3.39971 0.00209048 2.55025C0.00513783 2.2307 0.0765264 1.91708 0.263099 1.7111L1.54881 0.161011C1.81579 -0.112916 2.07398 -0.0182063 2.24483 0.300867L3.27918 2.6668C3.38805 2.94709 3.3256 3.24741 3.16317 3.44769L2.68949 4.01877C2.66025 4.06709 2.64163 4.12209 2.64116 4.18195C2.8228 5.03007 3.37307 5.81177 3.85919 6.34974C4.3453 6.88771 4.86782 7.61655 5.54608 7.7891C5.62991 7.8173 5.7326 7.82721 5.79259 7.75996L6.34362 7.08398C6.53357 6.91032 6.80783 6.82543 7.01062 6.96743H7.02029L8.88601 8.29608C9.1599 8.50317 9.18846 8.90339 8.99236 9.14688Z" fill="#E8C300"/>
        </g>
        <defs>
            <clipPath id="clip0_18130_2">
                <rect width="9.11925" height="11" fill="white"/>
            </clipPath>
        </defs>
    </symbol>

    <symbol id="email" width="15" height="16" viewBox="0 0 15 16" fill="none"
        xmlns="http://www.w3.org/2000/svg">
        <path d="M13.1033 2.66679C13.0481 2.66055 12.9924 2.66055 12.9372 2.66679H1.58877C1.51604 2.66802 1.44379 2.67998 1.37396 2.70235L7.23055 9.0979L13.1033 2.66679Z" fill="#E8C300"/>
        <path d="M13.7032 3.28418L7.80202 9.72862C7.65015 9.89418 7.4447 9.98711 7.23055 9.98711C7.0164 9.98711 6.81095 9.89418 6.65908 9.72862L0.810598 3.33307C0.792618 3.40553 0.783085 3.4802 0.782227 3.55529V12.4442C0.782227 12.6799 0.867629 12.906 1.01965 13.0727C1.17166 13.2394 1.37784 13.3331 1.59283 13.3331H12.9412C13.1562 13.3331 13.3624 13.2394 13.5144 13.0727C13.6664 12.906 13.7518 12.6799 13.7518 12.4442V3.55529C13.7486 3.46269 13.7322 3.37122 13.7032 3.28418ZM2.14809 12.4442H1.58472V11.8086L4.53125 8.60418L5.10273 9.23085L2.14809 12.4442ZM12.9331 12.4442H12.3657L9.41107 9.23085L9.98254 8.60418L12.9291 11.8086L12.9331 12.4442Z" fill="#E8C300"/>
    </symbol>

</svg>